<svg xmlns="http://www.w3.org/2000/svg" viewBox="0 0 512 512"><rect width="512" height="512" rx="116" fill="#090c12"/><circle cx="256" cy="256" r="178" fill="none" stroke="#b69a62" stroke-width="10" opacity=".55"/><path d="M290 102a155 155 0 1 0 78 282 137 137 0 1 1-78-282Z" fill="#d1b77d"/><path d="M135 286c48-18 88-13 121 18 33-31 73-36 121-18v103c-48-15-88-10-121 20-33-30-73-35-121-20Z" fill="#101722" stroke="#d1b77d" stroke-width="10"/><path d="M256 304v106" stroke="#d1b77d" stroke-width="8"/><path d="M394 147l7 16 17 2-13 11 4 17-15-9-15 9 4-17-13-11 17-2Z" fill="#d1b77d"/></svg>
